<svg width="90" height="90" viewBox="0 0 90 90" fill="none" xmlns="http://www.w3.org/2000/svg">
<path d="M75 26.25H63.75C61.7609 26.25 59.8532 25.4598 58.4467 24.0533C57.0402 22.6468 56.25 20.7391 56.25 18.75V7.5" stroke="white" stroke-width="4" stroke-linecap="round" stroke-linejoin="round"/>
<path d="M33.75 67.5C31.7609 67.5 29.8532 66.7098 28.4467 65.3033C27.0402 63.8968 26.25 61.9891 26.25 60V15C26.25 13.0109 27.0402 11.1032 28.4467 9.6967C29.8532 8.29018 31.7609 7.5 33.75 7.5H60L75 22.5V60C75 61.9891 74.2098 63.8968 72.8033 65.3033C71.3968 66.7098 69.4891 67.5 67.5 67.5H33.75Z" stroke="white" stroke-width="4" stroke-linecap="round" stroke-linejoin="round"/>
<path d="M11.25 28.5V76.5C11.25 78.0913 11.8821 79.6174 13.0074 80.7426C14.1326 81.8679 15.6587 82.5 17.25 82.5H54" stroke="white" stroke-width="4" stroke-linecap="round" stroke-linejoin="round"/>
<path d="M48.5156 60.4688L35.1562 47.1797L37.8281 44.4744L46.6071 53.2072V39.5859H50.4241V53.2072L59.2031 44.5219L61.875 47.1797L48.5156 60.4688ZM46.6071 35.7891V30.0938H50.4241V35.7891H46.6071ZM46.6071 26.2969V22.5H50.4241V26.2969H46.6071Z" fill="white"/>
</svg>
